<?xml version="1.0" encoding="utf-8"?>
<!-- Generator: Adobe Illustrator 16.0.0, SVG Export Plug-In . SVG Version: 6.00 Build 0)  -->
<!DOCTYPE svg PUBLIC "-//W3C//DTD SVG 1.1//EN" "http://www.w3.org/Graphics/SVG/1.1/DTD/svg11.dtd">
<svg version="1.1" id="bu_svg" xmlns="http://www.w3.org/2000/svg" xmlns:xlink="http://www.w3.org/1999/xlink"
	 x="0px" y="0px" width="493.037px" height="276.833px" viewBox="560.033 -120.447 493.037 276.833"
	 enable-background="new 560.033 -120.447 493.037 276.833" xml:space="preserve">

<g>
	<g>
		<rect x="960.564" y="-60.245" fill="#56B4E8" width="11.572" height="111.38"/>
		<polygon fill="#56B4E8" points="972.533,-56.174 960.388,-56.174 948.099,-79.836 985.466,-79.836 		"/>
		<g>
			<rect x="952.296" y="78.744" fill="#2BA57C" width="32.488" height="33.832"/>
			<ellipse fill="#40C199" cx="965.562" cy="115.146" rx="34.234" ry="4.894"/>
			<path fill="#56B4E8" d="M1000.041,114.598l-14.766-62.752h-39.129l-14.768,62.752h0.291c-0.188,0.209-0.291,0.414-0.291,0.629
				c0,2.395,12.027,4.387,27.93,4.817V97.212h12.801v22.832c15.896-0.435,27.93-2.426,27.93-4.817c0-0.215-0.105-0.42-0.291-0.629
				H1000.041z"/>
			<ellipse fill="#3498DB" cx="965.712" cy="51.963" rx="19.563" ry="2.797"/>
		</g>
		<path fill="#3498DB" d="M966.757-84.146c11.725,0,18.676,3.004,18.676,4.238c0,1.236-4.951,9.24-18.676,9.24
			c-14.025,0-18.68-8.004-18.68-9.24C948.08-81.142,955.23-84.146,966.757-84.146z"/>
	</g>
	<polygon fill="#C4C4C4" points="843.757,129.602 1020.718,142.04 1007.523,129.602 	"/>
	<polygon fill="#C4C4C4" points="681.824,131.631 754.681,145.549 887.171,149.103 845.587,131.631 	"/>
	<path fill="#40C199" d="M954.83,119.258v-135.29c0-25.824-20.936-46.762-46.762-46.762l0,0c-25.826,0-46.762,20.938-46.762,46.762
		v135.29H954.83z"/>
	<path fill="#0C81C1" d="M647.214,121.987h58.918v-152.7c0-26.035-21.104-47.139-47.141-47.139h-11.777"/>
	<g>
		<polygon fill="#FF6F6F" points="1009.386,81.817 989.554,67.994 1009.386,62.764 1028.265,69.426 		"/>
		<polygon fill="#FF6F6F" points="1008.646,137.451 989.312,128.858 989.312,67.994 1008.931,73.721 		"/>
		<polygon fill="#E56161" points="1028.265,130.289 1008.646,137.451 1008.646,75.156 1028.265,69.426 		"/>
	</g>
	<g>
		<polygon fill="#FF6F6F" points="973.886,114.348 961.134,105.458 973.886,102.096 986.025,106.381 		"/>
		<polygon fill="#FF6F6F" points="973.41,150.118 960.98,144.594 960.98,105.458 973.593,109.143 		"/>
		<polygon fill="#E56161" points="986.025,145.515 973.41,150.118 973.41,110.063 986.025,106.381 		"/>
	</g>
	<path fill="#3498DB" d="M646.707,126.046h58.92V-26.652c0-26.035-21.104-47.141-47.141-47.141h-11.779"/>
	<g>
		<circle fill="#2380B5" cx="671.095" cy="-50.22" r="5.708"/>
		<circle fill="#FFFFFF" cx="671.095" cy="-52.501" r="5.708"/>
	</g>
	<g>
		<circle fill="#2380B5" cx="704.224" cy="7.018" r="7.614"/>
		<circle fill="#FFFFFF" cx="704.224" cy="3.972" r="7.613"/>
	</g>
	<path fill="#5BDDB9" d="M954.83,123.602V-11.687c0-25.824-20.936-46.762-46.762-46.762l0,0c-25.826,0-46.762,20.938-46.762,46.762
		v135.289H954.83L954.83,123.602z"/>
	<rect x="683.414" y="65.135" fill="#FECB37" width="275.934" height="65.481"/>
	<rect x="706.115" y="-2.292" fill="#CE6767" width="213.396" height="68.526"/>
	<path fill="#CE6767" d="M715.378-0.515h49.182V33.68h0.018c0,0.104-0.01,0.207-0.018,0.312v0.135h-0.006
		c-0.227,3.113-2.787,5.576-5.941,5.644v0.004h-0.121c-0.002,0-0.004,0-0.004,0h-20.646c0,0-0.002,0-0.004,0h-22.459V-0.515
		L715.378-0.515z"/>
	<rect x="683.414" y="62.934" fill="#8C8B8B" width="275.316" height="3.808"/>
	<path fill="#CE6767" d="M722.82,34.018c0,3.002-2.434,5.438-5.438,5.438h-47.117c-3.002,0-5.438-2.437-5.438-5.438V2.758
		c0-3.002,2.434-5.436,5.438-5.436h47.117c3.004,0,5.438,2.434,5.438,5.436V34.018z"/>
	<g>
		<g>
			<rect x="686.201" y="-28.781" fill="#2380B5" width="3.197" height="0.723"/>
			<rect x="686.201" y="-33.706" fill="#F4F496" width="3.197" height="4.902"/>
		</g>
		<g>
			<rect x="691.277" y="-28.781" fill="#2380B5" width="3.195" height="0.723"/>
			<rect x="691.277" y="-33.706" fill="#F4F496" width="3.195" height="4.902"/>
		</g>
	</g>
	<g>
		<g>
			<rect x="656.556" y="-17.726" fill="#2380B5" width="3.195" height="0.723"/>
			<rect x="656.556" y="-22.65" fill="#F4F496" width="3.195" height="4.9"/>
		</g>
		<g>
			<rect x="661.632" y="-17.726" fill="#2380B5" width="3.195" height="0.723"/>
			<rect x="661.632" y="-22.65" fill="#F4F496" width="3.195" height="4.9"/>
		</g>
	</g>
	<g>
		<g>
			<rect x="686.416" y="-8.156" fill="#2380B5" width="3.195" height="0.725"/>
			<rect x="686.416" y="-13.083" fill="#F4F496" width="3.195" height="4.904"/>
		</g>
		<g>
			<rect x="691.49" y="-8.156" fill="#2380B5" width="3.195" height="0.725"/>
			<rect x="691.49" y="-13.083" fill="#F4F496" width="3.195" height="4.904"/>
		</g>
	</g>
	<g>
		<g>
			<rect x="688.162" y="52.383" fill="#2380B5" width="3.197" height="0.723"/>
			<rect x="688.162" y="47.457" fill="#F4F496" width="3.197" height="4.901"/>
		</g>
		<g>
			<rect x="693.238" y="52.383" fill="#2380B5" width="3.193" height="0.723"/>
			<rect x="693.238" y="47.457" fill="#F4F496" width="3.193" height="4.901"/>
		</g>
	</g>
	<g>
		<g>
			<rect x="654.822" y="48.49" fill="#2380B5" width="3.195" height="0.723"/>
			<rect x="654.822" y="43.565" fill="#F4F496" width="3.195" height="4.9"/>
		</g>
		<g>
			<rect x="659.896" y="48.49" fill="#2380B5" width="3.195" height="0.723"/>
			<rect x="659.896" y="43.565" fill="#F4F496" width="3.195" height="4.9"/>
		</g>
	</g>
	<rect x="669.708" y="-2.965" fill="#8C8B8B" width="250.371" height="7.187"/>
	<path fill="#8C8B8B" d="M664.751,4.208c0-2.041,0.164-3.326,1.078-4.697c0.949-1.428,2.775-2.473,4.188-2.473v7.17"/>
	<g id="pipeBall_left2_2">
		<circle fill="#ED8164" cx="635.896" cy="-39.199" r="4">
		
			<animate  fill="remove" calcMode="linear" restart="always" additive="replace" dur="1s" accumulate="none" attributeName="r" values="4;4;5;5" repeatCount="indefinite">
			</animate>
		</circle>
		
			<animateMotion  fill="remove" calcMode="paced" restart="always" additive="replace" dur="1s" accumulate="none" values="0,30;0,-20;0,-20" repeatCount="indefinite">
			</animateMotion>
		
			<animate  fill="remove" calcMode="linear" restart="always" additive="replace" dur="1s" accumulate="none" attributeName="opacity" values="1;1;0" repeatCount="indefinite">
			</animate>
	</g>
	<g id="pipeBall_left1_1">
		<circle fill="#FECB37" cx="604.646" cy="3.801" r="4">
		
			<animate  fill="remove" calcMode="linear" restart="always" additive="replace" dur="2s" accumulate="none" attributeName="r" values="4;4;5;5" repeatCount="indefinite">
			</animate>
		</circle>
		
			<animateMotion  fill="remove" calcMode="paced" restart="always" additive="replace" dur="2s" accumulate="none" values="0,35;0,-20;0,-20" repeatCount="indefinite">
			</animateMotion>
		
			<animate  fill="remove" calcMode="linear" restart="always" additive="replace" dur="2s" accumulate="none" attributeName="opacity" values="1;1;0" repeatCount="indefinite">
			</animate>
	</g>
	<g id="pipeBall_left1_2">
		<circle fill="#FECB37" cx="604.564" cy="-47.531" r="4">
		
			<animate  fill="remove" calcMode="linear" restart="always" additive="replace" dur="1.3s" accumulate="none" attributeName="r" values="4;4;5;5" repeatCount="indefinite">
			</animate>
		</circle>
		
			<animateMotion  fill="remove" calcMode="paced" restart="always" additive="replace" dur="1.3s" accumulate="none" values="0,80;0,-20;0,-20" repeatCount="indefinite">
			</animateMotion>
		
			<animate  fill="remove" calcMode="linear" restart="always" additive="replace" dur="1.3s" accumulate="none" attributeName="opacity" values="1;1;0" repeatCount="indefinite">
			</animate>
	</g>
	<g id="pipeBall_left2_1" opacity="0">
		<circle fill="#ED8164" cx="623.23" cy="-80.198" r="4">
		
			<animate  fill="remove" calcMode="linear" restart="always" additive="replace" dur="1.5s" accumulate="none" attributeName="r" begin=".5s" values="4;4;5;5" repeatCount="indefinite">
			</animate>
		</circle>
		
			<animateMotion  fill="remove" calcMode="paced" restart="always" additive="replace" dur="1.5s" accumulate="none" begin=".5s" values="0,80;0,-20;0,-20" repeatCount="indefinite">
			</animateMotion>
		
			<animate  fill="remove" calcMode="linear" restart="always" additive="replace" dur="1.5s" accumulate="none" attributeName="opacity" begin=".5s" values="1;1;0" repeatCount="indefinite">
			</animate>
	</g>
	<g>
		<circle fill="#2380B5" cx="657.388" cy="-57.438" r="4.76"/>
		<circle fill="#FFFFFF" cx="657.388" cy="-59.342" r="4.759"/>
	</g>
	<g>
		<circle fill="#2BA57C" cx="888.046" cy="-23.36" r="7.613"/>
		<circle fill="#FFFFFF" cx="888.046" cy="-26.405" r="7.613"/>
	</g>
	<g>
		<circle fill="#2BA57C" cx="916.562" cy="-18.865" r="6.188"/>
		<circle fill="#FFFFFF" cx="916.562" cy="-21.34" r="6.186"/>
	</g>
	<g>
		<circle fill="#2BA57C" cx="916.289" cy="-42.256" r="4.23"/>
		<circle fill="#FFFFFF" cx="916.289" cy="-43.948" r="4.229"/>
	</g>
	<g>
		<circle fill="#2BA57C" cx="937.111" cy="34.145" r="7.088"/>
		<circle fill="#FFFFFF" cx="937.111" cy="31.311" r="7.088"/>
	</g>
	<g>
		<rect x="815.523" y="-48.197" fill="#FECB37" width="2.367" height="45.01"/>
		<g id="wheel_1_">
			<g>
				<rect x="816.199" y="-60.717" fill="#3498DB" width="1.02" height="25.719"/>
				<rect x="803.847" y="-48.365" fill="#3498DB" width="25.721" height="1.016"/>
			</g>
			<g>
				
					<rect x="816.27" y="-60.781" transform="matrix(-0.7076 -0.7066 0.7066 -0.7076 1428.5808 495.3259)" fill="#3498DB" width="1.013" height="25.72"/>
				
					<rect x="803.839" y="-48.415" transform="matrix(-0.7071 -0.7071 0.7071 -0.7071 1428.0533 495.7257)" fill="#3498DB" width="25.719" height="1.014"/>
			</g>
			<path fill="#F8876E" d="M816.708-34.152c-7.561,0-13.705-6.148-13.705-13.705c0-7.559,6.146-13.707,13.705-13.707
				s13.705,6.148,13.705,13.707C830.412-40.301,824.263-34.152,816.708-34.152z M816.708-60.547
				c-6.996,0-12.689,5.691-12.689,12.689c0,6.996,5.693,12.689,12.689,12.689s12.688-5.693,12.688-12.689
				C829.396-54.856,823.705-60.547,816.708-60.547z"/>
			<path fill="#F8876E" d="M816.708-36.351c-6.346,0-11.508-5.162-11.508-11.508c0-6.346,5.162-11.506,11.508-11.506
				s11.508,5.16,11.508,11.506C828.212-41.513,823.05-36.351,816.708-36.351z M816.708-58.349c-5.783,0-10.488,4.707-10.488,10.49
				c0,5.783,4.705,10.49,10.488,10.49s10.49-4.707,10.49-10.49C827.197-53.642,822.492-58.349,816.708-58.349z"/>

        <animateTransform attributeName="transform"
                          attributeType="XML"
                          type="rotate"
                          from="0 816.708 -48.415"
                          to="360 816.708 -48.415"
                          dur="2s"
                          repeatCount="indefinite"/>

		</g>
	</g>
	<g>
		<rect x="948.214" y="-16.133" fill="#FECB37" width="3.646" height="69.291"/>
		<g id="wheel_2_">
			<g>
				<rect x="949.529" y="-32.365" fill="#3498DB" width="1.02" height="39.598"/>
				<rect x="930.24" y="-13.074" fill="#3498DB" width="39.598" height="1.018"/>
			</g>
			<g>
				
					<rect x="949.442" y="-32.35" transform="matrix(-0.7073 -0.7069 0.7069 -0.7073 1630.7683 650.0524)" fill="#3498DB" width="1.016" height="39.591"/>
				
					<rect x="930.237" y="-13.089" transform="matrix(-0.7071 -0.7071 0.7071 -0.7071 1630.7212 650.2787)" fill="#3498DB" width="39.591" height="1.015"/>
			</g>
			<path fill="#F8876E" d="M950.037,8.26c-11.479,0-20.82-9.343-20.82-20.825c0-11.484,9.342-20.826,20.82-20.826
				c11.48,0,20.828,9.342,20.828,20.826C970.865-1.083,961.523,8.26,950.037,8.26z M950.037-32.377
				c-10.922,0-19.813,8.887-19.813,19.813c0,10.924,8.889,19.811,19.813,19.811c10.928,0,19.813-8.887,19.813-19.811
				C969.849-23.49,960.962-32.377,950.037-32.377z"/>
			<path fill="#F8876E" d="M950.037,4.875c-9.613,0-17.438-7.824-17.438-17.441c0-9.615,7.822-17.438,17.438-17.438
				c9.617,0,17.438,7.822,17.438,17.438C967.478-2.949,959.654,4.875,950.037,4.875z M950.037-28.99
				c-9.055,0-16.424,7.367-16.424,16.422c0,9.059,7.369,16.428,16.424,16.428c9.061,0,16.428-7.369,16.428-16.428
				C966.462-21.622,959.093-28.99,950.037-28.99z"/>

        <animateTransform attributeName="transform"
                          attributeType="XML"
                          type="rotate"
                          from="0 949.529 -13.074"
                          to="360 949.529 -13.074"
                          dur="4s"
                          repeatCount="indefinite"/>

		</g>
	</g>
	<g>
		<g>
			<path fill="#40C199" d="M1040.357,123.555c0,0.422-2.373,0.754-5.307,0.754c-2.932,0-5.309-0.332-5.309-0.754
				c0-0.416,2.377-0.759,5.309-0.759C1037.984,122.796,1040.357,123.139,1040.357,123.555z"/>
			<path fill="#5BDDB9" d="M1040.394,123.471l-2.285-9.728h-6.064l-2.287,9.728h0.043c-0.025,0.028-0.043,0.061-0.043,0.096
				c0,0.369,1.859,0.684,4.322,0.75h1.982c2.465-0.066,4.326-0.381,4.326-0.75c0-0.035-0.02-0.063-0.045-0.096H1040.394z"/>
			<path fill="#40C199" d="M1038.107,113.76c0,0.241-1.355,0.438-3.031,0.438c-1.674,0-3.027-0.191-3.027-0.438
				c0-0.234,1.355-0.429,3.027-0.429C1036.75,113.331,1038.107,113.524,1038.107,113.76z"/>
		</g>
		<g>
			<path fill="#FECB37" d="M1036.63,113.878h-3.102V29.755c0-4.997,4.063-9.063,9.063-9.063s9.063,4.064,9.063,9.063v4.341h-3.098
				v-4.341c0-3.29-2.674-5.965-5.963-5.965s-5.963,2.677-5.963,5.965V113.878L1036.63,113.878z"/>
			<path fill="#FECB37" d="M1036.607,113.878h-3.098V29.755c0-3.29-2.676-5.965-5.965-5.965s-5.961,2.677-5.961,5.965v4.341h-3.1
				v-4.341c0-4.997,4.063-9.063,9.063-9.063c5.002,0,9.061,4.064,9.061,9.063V113.878L1036.607,113.878z"/>
		</g>
		<g id="light_right">
			<path fill="#FF6F6F" d="M1023.63,34.721c0,2.094-1.701,3.797-3.803,3.797c-2.098,0-3.797-1.703-3.797-3.797
				c0-2.104,1.699-3.802,3.797-3.802C1021.929,30.921,1023.63,32.619,1023.63,34.721z			">
<animate  fill="remove" calcMode="linear" restart="always" additive="replace" dur="2.5s" accumulate="none" attributeName="fill" begin="1s" values="#FF6F6F;#E7ED0F;#E7ED0F;#E7ED0F;#FF6F6F;#FF6F6F;" attributeType="XML" repeatCount="indefinite">
					</animate>
			</path>
			<path fill="#FF6F6F" d="M1053.07,34.721c0,2.094-1.701,3.797-3.799,3.797c-2.1,0-3.801-1.703-3.801-3.797
				c0-2.104,1.701-3.802,3.801-3.802C1051.369,30.921,1053.07,32.619,1053.07,34.721z			">
<animate  fill="remove" calcMode="linear" restart="always" additive="replace" dur="2.5s" accumulate="none" attributeName="fill" begin="1s" values="#FF6F6F;#E7ED0F;#E7ED0F;#E7ED0F;#FF6F6F;#FF6F6F;" attributeType="XML" repeatCount="indefinite">
					</animate>
			</path>
		</g>
	</g>
	<g>
		<rect x="683.787" y="80.112" fill="#191919" width="274.457" height="0.507"/>
		<rect x="682.906" y="96.862" fill="#191919" width="274.459" height="0.509"/>
		<rect x="683.787" y="113.612" fill="#191919" width="274.457" height="0.515"/>
	</g>
	<rect x="665.951" y="16.658" fill="#191919" width="252.703" height="0.506"/>
	<rect x="665.138" y="33.41" fill="#191919" width="254.092" height="0.508"/>
	<rect x="705.73" y="50.162" fill="#191919" width="212.924" height="0.508"/>
	<polyline fill="#E5AD23" points="881.898,146.233 871.103,137.469 894.134,112.406 917.166,136.962 905.863,146.743 	"/>
	<rect x="683.414" y="58.883" fill="#D6D6D6" width="274.816" height="4.473"/>
	<polygon fill="#D6D6D6" points="921.031,-2.127 671.232,-2.127 671.74,-6.599 921.031,-6.599 	"/>
	<g id="pipeBall_center_1">
		<circle fill="#ED8164" cx="718.453" cy="-67.622" r="4.5">
		
			<animate  fill="remove" calcMode="linear" restart="always" additive="replace" dur="0.9s" accumulate="none" attributeName="r" values="4.5;4.5;5.5;5.5" repeatCount="indefinite">
			</animate>
		</circle>
		
			<animateMotion  fill="remove" calcMode="paced" restart="always" additive="replace" dur="0.9s" accumulate="none" values="0,25;0,-20;0,-20" repeatCount="indefinite">
			</animateMotion>
		
			<animate  fill="remove" calcMode="linear" restart="always" additive="replace" dur="0.9s" accumulate="none" attributeName="opacity" values="1;1;0" repeatCount="indefinite">
			</animate>
	</g>
	<g id="pipeBall_center_2">
		<circle fill="#ED8164" cx="785.144" cy="-51.325" r="4.5">
		
			<animate  fill="remove" calcMode="linear" restart="always" additive="replace" dur="1.7s" accumulate="none" attributeName="r" values="4.5;4.5;5.5;5.5" repeatCount="indefinite">
			</animate>
		</circle>
		
			<animateMotion  fill="remove" calcMode="paced" restart="always" additive="replace" dur="1.7s" accumulate="none" values="0,25;0,-20;0,-20" repeatCount="indefinite">
			</animateMotion>
		
			<animate  fill="remove" calcMode="linear" restart="always" additive="replace" dur="1.7s" accumulate="none" attributeName="opacity" values="1;1;0" repeatCount="indefinite">
			</animate>
	</g>
	<g>
		<rect x="689.798" y="-42.079" fill="#FECB37" width="14.592" height="16.418"/>
		<rect x="689.376" y="-43.209" fill="#CE6955" width="15.348" height="2.074"/>
		<g>
			<rect x="692.843" y="-35.187" fill="#D3A32A" width="2.377" height="0.539"/>
			<rect x="692.843" y="-38.847" fill="#FF6F6F" width="2.377" height="3.646"/>
		</g>
		<rect x="699.259" y="-35.187" fill="#D3A32A" width="2.375" height="0.539"/>
		<rect x="699.259" y="-38.847" fill="#FF6F6F" width="2.375" height="3.646"/>
		<g>
			<rect x="692.843" y="-29.147" fill="#D3A32A" width="2.377" height="0.537"/>
			<rect x="692.843" y="-32.81" fill="#FF6F6F" width="2.377" height="3.645"/>
		</g>
		<rect x="699.259" y="-29.147" fill="#D3A32A" width="2.375" height="0.537"/>
		<rect x="699.259" y="-32.81" fill="#FF6F6F" width="2.375" height="3.645"/>
	</g>
	<g>
		<rect x="688.142" y="-24.938" fill="#5BDDB9" width="18.121" height="20.387"/>
		<rect x="687.621" y="-26.342" fill="#CE6955" width="19.061" height="2.576"/>
		<g>
			<rect x="691.925" y="-16.379" fill="#D3A32A" width="2.949" height="0.668"/>
			<rect x="691.925" y="-20.926" fill="#FF6F6F" width="2.949" height="4.525"/>
		</g>
		<rect x="699.892" y="-16.379" fill="#D3A32A" width="2.951" height="0.668"/>
		<rect x="699.892" y="-20.926" fill="#FF6F6F" width="2.951" height="4.525"/>
		<g>
			<rect x="691.925" y="-8.881" fill="#D3A32A" width="2.949" height="0.668"/>
			<rect x="691.925" y="-13.426" fill="#FF6F6F" width="2.949" height="4.525"/>
		</g>
		<rect x="699.892" y="-8.881" fill="#D3A32A" width="2.951" height="0.668"/>
		<rect x="699.892" y="-13.426" fill="#FF6F6F" width="2.951" height="4.525"/>
	</g>
	<g>
		<rect x="742.132" y="-72.956" fill="#FECB37" width="3.623" height="68.803"/>
		<g id="wheel">
			<g>
				<rect x="743.434" y="-92.237" fill="#3498DB" width="1.02" height="39.598"/>
				<rect x="724.145" y="-72.946" fill="#3498DB" width="39.598" height="1.018"/>
			</g>
			<g>
				
					<rect x="743.347" y="-92.222" transform="matrix(-0.7073 -0.7069 0.7069 -0.7073 1321.2146 402.1486)" fill="#3498DB" width="1.016" height="39.591"/>
				
					<rect x="724.142" y="-72.961" transform="matrix(-0.7071 -0.7071 0.7071 -0.7071 1321.2264 402.3424)" fill="#3498DB" width="39.591" height="1.015"/>
			</g>
			<g>
				<path fill="#F8876E" d="M743.939-51.614c-11.479,0-20.82-9.343-20.82-20.824c0-11.484,9.342-20.826,20.82-20.826
					c11.48,0,20.828,9.342,20.828,20.826C764.767-60.957,755.425-51.614,743.939-51.614z M743.939-92.25
					c-10.922,0-19.813,8.887-19.813,19.813c0,10.924,8.889,19.811,19.813,19.811c10.928,0,19.813-8.887,19.813-19.811
					C763.751-83.364,754.865-92.25,743.939-92.25z"/>
				<path fill="#F8876E" d="M743.939-54.999c-9.613,0-17.438-7.824-17.438-17.44c0-9.615,7.822-17.438,17.438-17.438
					c9.617,0,17.438,7.822,17.438,17.438C761.38-62.823,753.556-54.999,743.939-54.999z M743.939-88.864
					c-9.055,0-16.424,7.367-16.424,16.423c0,9.059,7.369,16.428,16.424,16.428c9.061,0,16.428-7.369,16.428-16.428
					C760.365-81.496,752.996-88.864,743.939-88.864z"/>
			</g>

        <animateTransform attributeName="transform"
                          attributeType="XML"
                          type="rotate"
                          from="0 743.347 -72.961"
                          to="360 743.347 -72.961"
                          dur="1.5s"
                          repeatCount="indefinite"/>

		</g>
	</g>
	<path fill="#3498DB" d="M759.937-4.928v-15.906c0-3.215,2.605-5.818,5.82-5.818l0,0c3.215,0,5.818,2.604,5.818,5.818v15.906"/>
	<g>
		<rect x="602.691" y="41.528" fill="#56B4E8" width="5.174" height="49.783"/>
		<polygon fill="#56B4E8" points="608.041,43.348 602.613,43.348 598.011,32.77 612.925,32.77 		"/>
		<g>
			<rect x="598.996" y="103.651" fill="#2BA57C" width="14.521" height="15.123"/>
			<ellipse fill="#40C199" cx="604.923" cy="119.924" rx="15.303" ry="2.188"/>
			<path fill="#56B4E8" d="M620.335,119.678l-6.602-28.05h-17.488l-6.6,28.05h0.129c-0.082,0.094-0.129,0.188-0.129,0.28
				c0,1.069,5.377,1.961,12.482,2.153v-10.204h5.719v10.204c7.107-0.192,12.484-1.084,12.484-2.153c0-0.097-0.047-0.188-0.131-0.28
				H620.335z"/>
			<ellipse fill="#3498DB" cx="604.992" cy="91.682" rx="8.744" ry="1.25"/>
		</g>
		<ellipse fill="#3498DB" cx="605.458" cy="32.741" rx="7.453" ry="1.001"/>
	</g>
	<g id="pipeBall_right">
		<circle fill="#FECB37" cx="894.857" cy="-79.656" r="5">
		
			<animate  fill="remove" calcMode="linear" restart="always" additive="replace" dur="1.59s" accumulate="none" attributeName="r" values="5;5;6;6" repeatCount="indefinite">
			</animate>
		</circle>
		
			<animateMotion  fill="remove" calcMode="paced" restart="always" additive="replace" dur="1.59s" accumulate="none" values="0,40;0,-20;0,-20" repeatCount="indefinite">
			</animateMotion>
		
			<animate  fill="remove" calcMode="linear" restart="always" additive="replace" dur="1.59s" accumulate="none" attributeName="opacity" values="1;1;0" repeatCount="indefinite">
			</animate>
	</g>
	<g>
		<rect x="888.078" y="40.119" fill="#2BA57C" width="17.418" height="18.14"/>
		<ellipse fill="#40C199" cx="895.189" cy="59.636" rx="18.354" ry="2.624"/>
		<path fill="#FF6F6F" d="M913.675,59.342l-7.918-33.646h-20.979l-7.916,33.646h0.152c-0.1,0.11-0.152,0.223-0.152,0.338
			c0,1.282,6.447,2.352,14.977,2.584V50.022h6.859v12.242c8.52-0.232,14.977-1.302,14.977-2.584c0-0.115-0.059-0.228-0.156-0.338
			H913.675L913.675,59.342z"/>
		<ellipse fill="#E56161" cx="895.271" cy="25.759" rx="10.486" ry="1.499"/>
	</g>
	<g>
		<polygon fill="#BC4835" points="774.388,144.696 799.216,116.266 824.042,145.099 		"/>
		<polygon fill="#FF6F6F" points="774.187,144.696 799.015,119.867 823.843,144.696 		"/>
	</g>
	<g>
		<polygon fill="#0C81C1" points="802.822,149.508 827.65,121.076 852.208,149.508 		"/>
		<polygon fill="#3498DB" points="802.554,149.901 827.38,125.074 852.208,149.901 		"/>
	</g>
	<polyline fill="#FECB37" points="881.898,148.267 871.103,137.469 894.134,114.436 917.166,137.469 905.863,148.772 	"/>
	<g>
		<rect x="620.216" y="111.328" fill="#2BA57C" width="21.855" height="22.763"/>
		<ellipse fill="#40C199" cx="629.14" cy="135.817" rx="23.031" ry="3.293"/>
		<path fill="#5BDDB9" d="M652.335,135.446L642.4,93.233h-26.32l-9.932,42.213h0.193c-0.125,0.142-0.193,0.277-0.193,0.425
			c0,1.61,8.092,2.95,18.789,3.241v-15.358h8.605v15.358c10.695-0.29,18.789-1.631,18.789-3.241c0-0.146-0.07-0.283-0.195-0.425
			H652.335z"/>
		<ellipse fill="#40C199" cx="629.242" cy="93.311" rx="13.162" ry="1.881"/>
	</g>
	<g>
		<polygon fill="#3498DB" points="979.208,91.162 888.945,91.162 888.945,43.309 969.017,43.309 		"/>
		<g>
			<rect x="908.8" y="57.998" fill="#2680B2" width="52.611" height="2.666"/>
			<rect x="908.615" y="57.503" fill="#66C4ED" width="52.615" height="2.666"/>
		</g>
		<g>
			<rect x="908.8" y="66.294" fill="#2680B2" width="52.611" height="2.666"/>
			<rect x="908.615" y="65.801" fill="#66C4ED" width="52.615" height="2.666"/>
		</g>
		<g>
			<rect x="908.8" y="75.184" fill="#2680B2" width="52.611" height="2.666"/>
			<rect x="908.615" y="74.688" fill="#66C4ED" width="52.615" height="2.666"/>
		</g>
		<rect x="888.945" y="41.885" fill="#8C8B8B" width="79.879" height="3.284"/>
	</g>
	<g>
		<g>
			<path fill="#40C199" d="M584.357,126.221c0,0.422-2.373,0.754-5.305,0.754s-5.309-0.332-5.309-0.754
				c0-0.416,2.377-0.759,5.309-0.759S584.357,125.805,584.357,126.221z"/>
			<path fill="#5BDDB9" d="M584.396,126.137l-2.287-9.728h-6.064l-2.287,9.728h0.043c-0.025,0.028-0.043,0.061-0.043,0.096
				c0,0.369,1.861,0.68,4.328,0.75h1.98c2.465-0.07,4.326-0.381,4.326-0.75c0-0.035-0.018-0.063-0.045-0.096H584.396z"/>
			<path fill="#40C199" d="M582.107,116.426c0,0.241-1.355,0.438-3.031,0.438c-1.674,0-3.031-0.193-3.031-0.438
				c0-0.232,1.357-0.429,3.031-0.429C580.751,115.998,582.107,116.19,582.107,116.426z"/>
		</g>
		<g>
			<path fill="#FECB37" d="M580.63,116.544h-3.098V32.421c0-4.997,4.063-9.063,9.061-9.063c5,0,9.063,4.064,9.063,9.063v4.341
				h-3.098v-4.341c0-3.29-2.674-5.965-5.963-5.965s-5.963,2.677-5.963,5.965L580.63,116.544L580.63,116.544z"/>
			<path fill="#FECB37" d="M580.607,116.544h-3.096V32.421c0-3.29-2.676-5.965-5.965-5.965s-5.961,2.677-5.961,5.965v4.341h-3.098
				v-4.341c0-4.997,4.063-9.063,9.061-9.063s9.063,4.064,9.063,9.063L580.607,116.544L580.607,116.544z"/>
		</g>
		<g id="light_left">
			<path fill="#FF6F6F" d="M567.63,37.387c0,2.094-1.701,3.797-3.801,3.797c-2.098,0-3.797-1.703-3.797-3.797
				c0-2.104,1.699-3.802,3.797-3.802C565.929,33.587,567.63,35.285,567.63,37.387z			">
<animate  fill="remove" calcMode="linear" restart="always" additive="replace" dur="2.5s" accumulate="none" attributeName="fill" values="#FF6F6F;#E7ED0F;#E7ED0F;#E7ED0F;#FF6F6F;#FF6F6F;" attributeType="XML" repeatCount="indefinite">
					</animate>
			</path>
			<path fill="#FF6F6F" d="M597.07,37.387c0,2.094-1.701,3.797-3.799,3.797c-2.1,0-3.799-1.703-3.799-3.797
				c0-2.104,1.699-3.802,3.799-3.802C595.371,33.587,597.07,35.285,597.07,37.387z			">
<animate  fill="remove" calcMode="linear" restart="always" additive="replace" dur="2.5s" accumulate="none" attributeName="fill" values="#FF6F6F;#E7ED0F;#E7ED0F;#E7ED0F;#FF6F6F;#FF6F6F;" attributeType="XML" repeatCount="indefinite">
					</animate>
			</path>
			
				<animateColor  fill="remove" calcMode="linear" restart="always" to="red" from="black" additive="replace" dur="2s" accumulate="none" attributeName="fill" attributeType="XML" repeatCount="indefinite">
				</animateColor>
		</g>
	</g>
	<g>
		<circle fill="#FF6F6F" cx="829.896" cy="97.635" r="23.5"/>
		<circle fill="#E56161" cx="829.712" cy="99.717" r="15.316"/>
		<circle fill="#FECB37" cx="829.712" cy="96.45" r="15.316"/>
	</g>
	<g>
		<circle fill="#FF6F6F" cx="760.896" cy="29.635" r="17.5"/>
		<circle fill="#E56161" cx="760.759" cy="31.185" r="11.405"/>
		<circle fill="#CE6767" cx="760.759" cy="28.752" r="11.406"/>
	</g>
	<polygon opacity="0.3" fill="#DBA82A" enable-background="new    " points="889.23,91.135 959.23,127.801 959.23,91.135 	"/>
	<path fill="#5BDDB9" d="M635.128,92.447c0,0-1.992,0.854-5.979,0.854c-3.418,0-5.553-0.854-5.553-0.854V11.744
		c0,0,1.992-0.854,5.834-0.854c3.846,0,5.693,0.854,5.693,0.854L635.128,92.447L635.128,92.447z"/>
	<polygon fill="#5BDDB9" points="635.087,12.926 623.966,12.926 614.544,-8.74 645.099,-8.74 	"/>
	<ellipse fill="#40C199" cx="629.798" cy="-8.802" rx="15.271" ry="2.052"/>
	<rect x="892.509" y="-34.4" fill="#FF6F6F" width="6.207" height="59.717"/>
	<polygon fill="#FF6F6F" points="898.927,-32.219 892.417,-32.219 886.9,-44.906 904.789,-44.906 	"/>
	<ellipse fill="#E56161" cx="895.83" cy="-44.942" rx="8.941" ry="1.2"/>
	<g>
		<g>
			<rect x="835.882" y="-19.324" fill="#2BA57C" width="11.857" height="12.352"/>
			<path fill="#40C199" d="M840.724-7.822c6.902,0,14.125,0.801,14.125,1.787c0,0.986-7.223,1.787-14.125,1.787
				c-6.9,0-14.125-0.801-14.125-1.787C826.599-7.021,833.822-7.822,840.724-7.822z"/>
			<path fill="#5BDDB9" d="M854.937-6.236l-7.018-22.906h-14.281l-7.021,22.906h0.105c-0.066,0.074-0.105,0.15-0.105,0.229
				c0,0.875,6.021,1.604,11.824,1.76v-8.335h4.672v8.334c5.807-0.158,11.82-0.887,11.82-1.76c0-0.078-0.037-0.154-0.104-0.229
				L854.937-6.236L854.937-6.236z"/>
			<ellipse fill="#40C199" cx="840.779" cy="-29.101" rx="7.145" ry="1.021"/>
		</g>
		<circle fill="#2BA57C" cx="840.507" cy="-19.323" r="2.171"/>
		<path fill="#2BA57C" d="M851.095-18.941c-0.164,0.057-0.338,0.096-0.52,0.111c-1.191,0.107-2.25-0.771-2.355-1.967
			c-0.094-1.025,0.545-1.951,1.482-2.26"/>
		<path fill="#2BA57C" d="M830.556-19.004c0.166,0.053,0.342,0.084,0.521,0.094c1.197,0.068,2.227-0.848,2.289-2.045
			c0.063-1.029-0.609-1.932-1.563-2.207"/>
		<path fill="#5BDDB9" d="M844.623-29.908l-3.729-7.557l-3.729,7.557c0,0,0.912,0.592,3.748,0.592
			C844.197-29.316,844.623-29.908,844.623-29.908z"/>
	</g>
	<g>
		<g>
			<rect x="879.384" y="127.475" fill="#2BA57C" width="22.738" height="23.684"/>
			<path fill="#40C199" d="M888.669,149.528c13.23,0,27.082,1.535,27.082,3.43c0,1.896-13.852,3.428-27.082,3.428
				c-13.234,0-27.084-1.532-27.084-3.428C861.583,151.063,875.435,149.528,888.669,149.528z"/>
			<path fill="#5BDDB9" d="M915.923,152.569l-13.457-43.922h-27.389l-13.457,43.922h0.205c-0.131,0.146-0.205,0.287-0.205,0.439
				c0,1.678,11.541,3.07,22.674,3.371V140.4h8.957v15.979c11.129-0.301,22.672-1.693,22.672-3.371c0-0.152-0.074-0.297-0.205-0.439
				H915.923z"/>
			<ellipse fill="#40C199" cx="888.775" cy="108.73" rx="13.689" ry="1.958"/>
		</g>
		<circle fill="#2BA57C" cx="888.251" cy="127.474" r="4.161"/>
		<path fill="#2BA57C" d="M908.556,128.208c-0.313,0.106-0.646,0.183-0.99,0.214c-2.289,0.206-4.314-1.48-4.521-3.771
			c-0.182-1.971,1.045-3.743,2.848-4.332"/>
		<path fill="#2BA57C" d="M869.173,128.087c0.316,0.103,0.65,0.162,1,0.183c2.295,0.131,4.26-1.625,4.393-3.922
			c0.107-1.976-1.176-3.703-2.996-4.23"/>
		<path fill="#5BDDB9" d="M896.148,107.176l-7.15-14.484l-7.148,14.484c0,0,1.748,1.139,7.189,1.139
			C895.33,108.313,896.148,107.176,896.148,107.176z"/>
	</g>
	<g>
		<circle fill="#FF6F6F" cx="1008.564" cy="57.468" r="12.667"/>
		<circle fill="#E56161" cx="1011.232" cy="54.134" r="3.667"/>
	</g>
	<g>
		<circle fill="#FF6F6F" cx="972.564" cy="97.135" r="9"/>
		<circle fill="#E56161" cx="974.458" cy="94.767" r="2.604"/>
	</g>
	<circle fill="#FF6F6F" cx="966.314" cy="-96.364" r="24.083"/>
	<circle fill="#E56161" cx="966.792" cy="-95.074" r="11.625"/>
	<circle fill="#FFFFFF" cx="966.792" cy="-98.074" r="11.625"/>
	<circle fill="#FF6F6F" cx="967.273" cy="-98.073" r="8.792"/>
	<g>
		<g>
			<rect x="672.595" y="13.149" fill="#F9BF64" width="7.01" height="17.593"/>
			<rect x="672.595" y="8.492" fill="#56B4E8" width="7.01" height="17.599"/>
		</g>
		<g>
			<rect x="685.757" y="13.149" fill="#F9BF64" width="7.012" height="17.593"/>
			<rect x="685.757" y="8.492" fill="#56B4E8" width="7.012" height="17.599"/>
		</g>
		<g>
			<rect x="698.925" y="13.149" fill="#F9BF64" width="7.01" height="17.593"/>
			<rect x="698.925" y="8.492" fill="#56B4E8" width="7.01" height="17.599"/>
		</g>
		<g>
			<rect x="712.089" y="13.149" fill="#F9BF64" width="7.01" height="17.593"/>
			<rect x="712.089" y="8.492" fill="#56B4E8" width="7.01" height="17.599"/>
		</g>
		<g>
			<rect x="725.255" y="13.149" fill="#F9BF64" width="7.01" height="17.593"/>
			<rect x="725.255" y="8.492" fill="#56B4E8" width="7.01" height="17.599"/>
		</g>
	</g>
	<g>
		<rect x="810.595" y="27.149" fill="#F9BF64" width="7.01" height="17.593"/>
		<rect x="810.595" y="22.492" fill="#56B4E8" width="7.01" height="17.599"/>
	</g>
	<g>
		<rect x="823.759" y="27.149" fill="#F9BF64" width="7.012" height="17.593"/>
		<rect x="823.759" y="22.492" fill="#56B4E8" width="7.012" height="17.599"/>
	</g>
	<g>
		<rect x="836.925" y="27.149" fill="#F9BF64" width="7.01" height="17.593"/>
		<rect x="836.925" y="22.492" fill="#56B4E8" width="7.01" height="17.599"/>
	</g>
	<g>
		<rect x="695.457" y="96.921" fill="#BC4835" width="1.465" height="8.238"/>
		<rect x="697.226" y="114.926" fill="#BC4835" width="1.465" height="8.235"/>
		<rect x="727.158" y="106.869" fill="#BC4835" width="1.463" height="8.237"/>
		<polygon fill="#BC4835" points="763.841,99.66 762.148,99.66 756.289,96.479 762.148,92.635 763.841,92.635 		"/>
		<g>
			<path fill="#BC4835" d="M663.935,87.776h19.916c2.441,0,4.531,0.298,6.271,0.892c1.738,0.593,3.182,1.464,4.326,2.61
				c0.775,0.777,1.389,1.688,1.832,2.724c0.441,1.037,0.666,2.226,0.666,3.558v0.11c0,2.261-0.563,4.084-1.688,5.476
				c-1.125,1.391-2.553,2.455-4.283,3.192c2.377,0.779,4.266,1.899,5.658,3.361c1.395,1.465,2.09,3.512,2.09,6.144v0.11
				c0,3.371-1.289,6.002-3.861,7.894c-2.574,1.891-6.193,2.834-10.861,2.834h-20.064L663.935,87.776L663.935,87.776z
				 M681.216,106.21c1.668,0,2.938-0.276,3.809-0.834c0.869-0.558,1.307-1.405,1.307-2.558v-3.041c0-1.071-0.406-1.895-1.223-2.473
				c-0.813-0.572-2.039-0.861-3.668-0.861h-7.002v9.767H681.216z M682.775,120.938c1.666,0,2.943-0.307,3.834-0.918
				c0.889-0.61,1.334-4.42,1.334-5.567v2.817c0-1.076-0.428-4.854-1.279-5.485c-0.854-0.629-2.188-0.94-4-0.94h-8.229v10.1h8.338
				L682.775,120.938L682.775,120.938z"/>
			<path fill="#BC4835" d="M707.226,87.776h10.836v38.9h-10.836V87.776z"/>
			<path fill="#BC4835" d="M748.349,127.457c-3.039,0-5.844-0.491-8.42-1.474c-2.572-0.98-4.807-2.362-6.693-4.145
				c-1.893-1.775-3.373-3.895-4.445-6.359c-1.074-2.465-1.611-5.18-1.611-8.145v-0.109c0-2.813,0.523-5.453,1.576-7.92
				c1.051-2.465,2.498-4.611,4.34-6.445c1.844-1.834,4.051-3.27,6.621-4.309c2.57-1.037,5.355-1.557,8.357-1.557
				c3.443,0,6.418,0.5,8.92,1.5c2.5,1.002,4.787,2.391,6.861,4.168l-6.336,7.613c-1.406-1.188-2.844-2.094-4.307-2.725
				c-1.465-0.632-3.16-0.943-5.086-0.943c-1.408,0-2.713,0.277-3.918,0.834c-1.203,0.557-2.25,1.313-3.143,2.277
				c-0.889,0.965-1.594,2.094-2.107,3.391c-0.521,1.299-0.779,2.688-0.779,4.17v0.109c0,1.557,0.26,3,0.781,4.334
				c0.52,1.334,1.254,2.475,2.201,3.418c0.945,0.942,2.063,1.688,3.346,2.223c1.281,0.539,2.705,0.809,4.266,0.809
				c2.527,0,4.609-0.537,6.244-1.609v-4.727h-7.668v-5.693h17.896v15.31c-2.074,1.705-4.521,3.133-7.334,4.278
				C755.091,126.883,751.906,127.457,748.349,127.457z"/>
		</g>
		<g>
			<path fill="#FF6F6F" d="M663.935,94.733h19.916c2.441,0,4.531,0.298,6.271,0.892c1.738,0.595,3.182,1.466,4.326,2.608
				c0.775,0.779,1.389,1.688,1.832,2.728c0.441,1.037,0.666,2.224,0.666,3.558v0.11c0,2.261-0.563,4.084-1.688,5.476
				c-1.125,1.391-2.553,2.455-4.283,3.192c2.377,0.777,4.266,1.896,5.658,3.361c1.395,1.465,2.09,3.512,2.09,6.144v0.108
				c0,3.371-1.289,6.004-3.861,7.894c-2.574,1.893-6.193,2.836-10.861,2.836h-20.064L663.935,94.733L663.935,94.733z
				 M681.216,110.237c1.668,0,2.938-0.274,3.809-0.831c0.869-0.558,1.307-1.406,1.307-2.558v-0.111c0-1.071-0.406-1.895-1.223-2.473
				c-0.813-0.574-2.039-0.861-3.668-0.861h-7.002v6.835L681.216,110.237L681.216,110.237z M682.775,124.967
				c1.666,0,2.943-0.308,3.834-0.918c0.889-0.609,1.334-1.49,1.334-2.642v-0.108c0-1.072-0.428-1.927-1.279-2.56
				c-0.854-0.63-2.188-0.942-4-0.942h-8.229v7.17H682.775L682.775,124.967z"/>
			<path fill="#FF6F6F" d="M707.226,94.733h10.836v38.9h-10.836V94.733z"/>
			<path fill="#FF6F6F" d="M748.349,134.412c-3.039,0-5.844-0.489-8.42-1.472c-2.572-0.981-4.807-2.362-6.693-4.145
				c-1.893-1.777-3.373-3.896-4.445-6.361c-1.074-2.465-1.611-5.178-1.611-8.143v-0.109c0-2.813,0.523-5.457,1.576-7.92
				c1.051-2.465,2.498-4.611,4.34-6.445c1.844-1.834,4.051-3.271,6.621-4.309c2.57-1.035,5.355-1.557,8.357-1.557
				c3.443,0,6.418,0.502,8.92,1.5c2.5,1,4.787,2.391,6.861,4.168l-6.336,7.613c-1.406-1.188-2.844-2.094-4.307-2.725
				c-1.465-0.63-3.16-0.943-5.086-0.943c-1.408,0-2.713,0.277-3.918,0.834c-1.203,0.557-2.25,1.313-3.143,2.277
				c-0.889,0.963-1.594,2.094-2.107,3.391c-0.521,1.299-0.779,2.688-0.779,4.168v0.111c0,1.557,0.26,3,0.781,4.334
				c0.52,1.334,1.254,2.475,2.201,3.418c0.945,0.942,2.063,1.686,3.346,2.223c1.281,0.539,2.705,0.809,4.266,0.809
				c2.527,0,4.609-0.537,6.244-1.611v-4.725h-7.668V110.9h17.896v17.506c-2.074,1.703-4.521,3.133-7.334,4.279
				C755.091,133.84,751.906,134.412,748.349,134.412z"/>
		</g>
	</g>
	<path fill="#8C8B8B" d="M953.775,115.171c-1.068,0-2.1,0.187-3.061,0.509c-0.746-1.66-1.615-3.584-2.639-5.859l0.648-1.787
		l2.234-0.045v-1.871h-8.416c-0.738,1.016,0.297,1.01,4.021,1.838l-0.648,1.826h-16.637c1.121-3.912,0.486-3.623,5.535-3.613v-1.922
		c-6.941,0.074-5.742-0.711-9.457,11.25c-0.568-0.104-1.152-0.16-1.756-0.16c-5.271,0-9.563,4.285-9.563,9.563
		c0,5.275,4.289,9.563,9.563,9.563s9.563-4.293,9.563-9.563c0-3.948-2.404-7.35-5.822-8.801c0.205-0.662,0.434-1.354,0.67-2.104
		c13.994,14.771,8.742,12.366,16.273,12.659c0.039,0,0.07,0,0.104,0c0.896,4.363,4.756,7.65,9.375,7.65
		c5.277,0,9.566-4.291,9.566-9.561C963.339,119.462,959.05,115.171,953.775,115.171z M930.937,124.895
		c0,4.035-3.287,7.324-7.328,7.324s-7.328-3.289-7.328-7.324s3.287-7.33,7.328-7.33c0.361,0,0.721,0.033,1.07,0.084
		c-2.336,7.357-2.055,6.527-2.066,7.144c-0.01,0.521,0.41,0.937,0.941,0.978c0.951-0.098,0.732,0.063,3.119-7.521
		C929.181,119.408,930.937,121.946,930.937,124.895z M940.378,124.438l-11.572-12.604l16.279-0.03L940.378,124.438z
		 M944.208,124.708l-1.779-0.008l4.619-12.125l1.791,3.972C946.072,118.219,944.222,121.244,944.208,124.708z M949.769,118.61
		l2.766,6.119l-6.086-0.02C946.458,122.158,947.779,119.908,949.769,118.61z M953.775,132.065c-3.379,0-6.229-2.307-7.072-5.414
		c7.627,0.007,8.311,0.402,8.412-0.924c-0.01-0.385-0.148-0.651-3.475-8.002c0.676-0.197,1.395-0.313,2.135-0.313
		c4.041,0,7.326,3.287,7.326,7.328C961.103,128.774,957.816,132.065,953.775,132.065z"/>
	<rect x="715.068" y="-37.127" fill="#FECB37" width="6.803" height="32.975"/>
	<path fill="#FECB37" d="M715.154-37.447c0-1.805,1.482-3.268,3.314-3.268c1.83,0,3.313,1.463,3.313,3.268"/>
	<polygon fill="#FECB37" points="721.775,-34.469 714.794,-34.469 708.88,-48.066 728.058,-48.066 	"/>
	<ellipse fill="#E5AD23" cx="717.914" cy="-48.14" rx="9.445" ry="1.269"/>
	<rect x="781.757" y="-20.831" fill="#FECB37" width="6.807" height="15.902"/>
	<path fill="#FECB37" d="M781.841-21.15c0-1.805,1.486-3.266,3.316-3.266c1.832,0,3.314,1.461,3.314,3.266"/>
	<polygon fill="#FECB37" points="788.466,-18.172 781.486,-18.172 775.572,-31.771 794.751,-31.771 	"/>
	<ellipse fill="#E5AD23" cx="784.542" cy="-31.825" rx="9.441" ry="1.269"/>
</g>
</svg>
